<svg width="787" height="792" viewBox="0 0 787 792" fill="none" xmlns="http://www.w3.org/2000/svg">
<path d="M57.6544 634V157.887H344.996V209.032H115.309V369.906H330.118V421.051H115.309V582.855H348.716V634H57.6544Z" fill="white"/>
<path d="M360.654 634V157.887H521.529C558.88 157.887 589.412 164.628 613.125 178.112C636.992 191.441 654.661 209.497 666.129 232.279C677.598 255.062 683.333 280.48 683.333 308.532C683.333 336.584 677.598 362.079 666.129 385.017C654.816 407.955 637.302 426.243 613.59 439.881C589.877 453.365 559.5 460.107 522.459 460.107H407.15V408.962H520.599C546.171 408.962 566.707 404.545 582.205 395.711C597.704 386.877 608.94 374.943 615.914 359.909C623.044 344.721 626.608 327.595 626.608 308.532C626.608 289.469 623.044 272.42 615.914 257.387C608.94 242.353 597.626 230.574 581.973 222.05C566.319 213.371 545.551 209.032 519.669 209.032H418.309V634H360.654Z" fill="white"/>
<path d="M481.311 636.657C474.126 636.657 467.605 635.304 461.749 632.597C455.893 629.842 451.242 625.88 447.797 620.713C444.352 615.496 442.63 609.197 442.63 601.815C442.63 595.319 443.909 590.053 446.468 586.018C449.028 581.933 452.448 578.734 456.729 576.421C461.011 574.108 465.735 572.386 470.903 571.254C476.119 570.073 481.36 569.138 486.626 568.449C493.516 567.563 499.101 566.899 503.383 566.456C507.713 565.964 510.863 565.152 512.832 564.02C514.849 562.888 515.858 560.919 515.858 558.114V557.524C515.858 550.24 513.865 544.581 509.879 540.545C505.942 536.51 499.963 534.492 491.941 534.492C483.624 534.492 477.103 536.313 472.379 539.955C467.654 543.597 464.333 547.484 462.413 551.618L445.878 545.713C448.831 538.823 452.768 533.459 457.689 529.62C462.659 525.732 468.073 523.026 473.929 521.5C479.835 519.925 485.642 519.138 491.35 519.138C494.992 519.138 499.175 519.581 503.9 520.467C508.673 521.303 513.275 523.05 517.704 525.708C522.182 528.365 525.898 532.376 528.85 537.74C531.803 543.104 533.279 550.289 533.279 559.295V634H515.858V618.646H514.972C513.791 621.106 511.823 623.739 509.067 626.544C506.311 629.349 502.645 631.736 498.068 633.705C493.491 635.673 487.905 636.657 481.311 636.657ZM483.968 621.008C490.858 621.008 496.665 619.655 501.39 616.948C506.163 614.241 509.756 610.747 512.167 606.466C514.628 602.184 515.858 597.681 515.858 592.957V577.012C515.12 577.898 513.496 578.71 510.986 579.448C508.525 580.137 505.671 580.752 502.423 581.293C499.224 581.785 496.099 582.228 493.048 582.622C490.046 582.967 487.61 583.262 485.74 583.508C481.213 584.098 476.98 585.058 473.043 586.387C469.155 587.666 466.006 589.61 463.594 592.219C461.232 594.778 460.051 598.272 460.051 602.701C460.051 608.754 462.29 613.331 466.769 616.431C471.296 619.482 477.029 621.008 483.968 621.008ZM607.892 636.362C598.443 636.362 590.101 633.975 582.867 629.202C575.633 624.379 569.974 617.588 565.889 608.828C561.804 600.019 559.762 589.61 559.762 577.602C559.762 565.693 561.804 555.358 565.889 546.599C569.974 537.839 575.658 531.072 582.941 526.298C590.224 521.525 598.64 519.138 608.187 519.138C615.569 519.138 621.401 520.368 625.682 522.829C630.013 525.24 633.31 527.996 635.574 531.097C637.887 534.148 639.683 536.658 640.963 538.626H642.439V482.819H659.86V634H643.03V616.579H640.963C639.683 618.646 637.862 621.254 635.5 624.404C633.138 627.504 629.767 630.284 625.387 632.745C621.007 635.156 615.175 636.362 607.892 636.362ZM610.254 620.713C617.242 620.713 623.148 618.892 627.97 615.25C632.793 611.559 636.46 606.466 638.969 599.97C641.479 593.424 642.734 585.87 642.734 577.307C642.734 568.843 641.504 561.436 639.043 555.088C636.583 548.69 632.941 543.72 628.118 540.176C623.295 536.584 617.341 534.788 610.254 534.788C602.872 534.788 596.721 536.682 591.799 540.472C586.927 544.212 583.261 549.305 580.8 555.752C578.389 562.15 577.183 569.335 577.183 577.307C577.183 585.378 578.413 592.711 580.874 599.305C583.384 605.85 587.075 611.067 591.947 614.955C596.868 618.793 602.971 620.713 610.254 620.713ZM774.501 546.008L758.851 550.437C757.867 547.829 756.415 545.294 754.496 542.834C752.626 540.324 750.067 538.257 746.819 536.633C743.571 535.009 739.412 534.197 734.343 534.197C727.404 534.197 721.622 535.796 716.996 538.995C712.419 542.145 710.131 546.156 710.131 551.028C710.131 555.358 711.706 558.779 714.855 561.288C718.005 563.798 722.926 565.89 729.619 567.563L746.45 571.697C756.587 574.158 764.142 577.922 769.112 582.991C774.083 588.011 776.568 594.482 776.568 602.406C776.568 608.902 774.698 614.709 770.958 619.827C767.267 624.945 762.099 628.98 755.456 631.933C748.812 634.886 741.086 636.362 732.276 636.362C720.712 636.362 711.14 633.852 703.561 628.833C695.982 623.813 691.184 616.48 689.166 606.835L705.702 602.701C707.276 608.803 710.254 613.38 714.634 616.431C719.063 619.482 724.845 621.008 731.981 621.008C740.101 621.008 746.548 619.285 751.322 615.841C756.145 612.346 758.556 608.163 758.556 603.291C758.556 599.354 757.178 596.057 754.422 593.4C751.666 590.693 747.434 588.675 741.725 587.347L722.828 582.917C712.444 580.457 704.816 576.643 699.944 571.475C695.121 566.259 692.71 559.738 692.71 551.913C692.71 545.516 694.506 539.856 698.098 534.935C701.74 530.014 706.686 526.151 712.936 523.346C719.235 520.54 726.371 519.138 734.343 519.138C745.564 519.138 754.373 521.599 760.771 526.52C767.217 531.441 771.794 537.937 774.501 546.008Z" fill="white"/>
</svg>
